# xmcd
#
# Track frame offsets:
#	150
#	23061
#	57723
#	75619
#	100565
#	124158
#	143319
#	166504
#	189926
#	209515
#	241059
#
# Disc length: 3853 seconds
# Revision: 0
# Processed by: cddbd v1.5.2PL0 Copyright (c) Steve Scherf et al.
# Submitted via: dBpowerAMP V12.0
#
DISCID=800f0b0b
DTITLE=Sonny Landreth - Grant Street
DYEAR=2005
DGENRE=Blues
TTITLE0=Native Stepson
TTITLE1=Broken Hearted Road
TTITLE2=Gone Pecan
TTITLE3=Port Of Calling
TTITLE4=Blues Attack
TTITLE5=Z. Rider
TTITLE6=U.S.S. Zydecoldsmobile
TTITLE7=Wind In Denver
TTITLE8=All About You
TTITLE9=Pedal To Metal
TTITLE10=Congo Square
EXTD=
EXTT0=
EXTT1=
EXTT2=
EXTT3=
EXTT4=
EXTT5=
EXTT6=
EXTT7=
EXTT8=
EXTT9=
EXTT10=
PLAYORDER=
